# xmcd CD database file
#
# Track frame offsets:
#	150
#	23562
#	41830
#	63090
#	92852
#	111852
#	127872
#	151355
#
# Disc length: 2413 seconds
#
# Revision: 0
# Processed by: cddbd v1.5.1PL0 Copyright (c) Steve Scherf et al.
# Submitted via: CDex 1.51
#
DISCID=5c096b08
DTITLE=fragile - fragile
DYEAR=1996
DGENRE=Fusion
TTITLE0=Bluff
TTITLE1=Back Skip
TTITLE2=Caribbean Funk Method
TTITLE3=庭に鰐
TTITLE4=Urgent
TTITLE5=カレカ
TTITLE6=Beat Kids
TTITLE7=窮鼠猫を噛む
EXTD=YEAR: 1996
EXTT0=
EXTT1=
EXTT2=
EXTT3=
EXTT4=
EXTT5=
EXTT6=
EXTT7=
PLAYORDER=
